<?xml version="1.0" standalone="no"?>
<!DOCTYPE svg PUBLIC "-//W3C//DTD SVG 20010904//EN"
 "http://www.w3.org/TR/2001/REC-SVG-20010904/DTD/svg10.dtd">
<svg version="1.0" xmlns="http://www.w3.org/2000/svg"
 width="667.000000pt" height="667.000000pt" viewBox="0 0 667.000000 667.000000"
 preserveAspectRatio="xMidYMid meet">
<metadata>
Created by potrace 1.11, written by Peter Selinger 2001-2013
</metadata>
<g transform="translate(0.000000,667.000000) scale(0.100000,-0.100000)"
fill="#000000" stroke="none">
<path d="M1510 3325 l0 -1905 1905 0 1905 0 0 1905 0 1905 -1905 0 -1905 0 0
-1905z m3610 0 l0 -1705 -1705 0 -1705 0 0 1705 0 1705 1705 0 1705 0 0 -1705z"/>
<path d="M2460 4794 c-81 -17 -209 -80 -275 -134 -295 -245 -338 -680 -97
-975 88 -108 232 -199 363 -230 84 -19 258 -19 334 0 144 37 288 130 374 242
97 126 138 240 148 416 l6 107 -397 0 -396 0 0 -286 0 -286 -32 6 c-101 20
-241 131 -296 234 -106 199 -75 418 83 578 84 85 209 144 307 144 l38 0 0 100
0 100 -47 -1 c-27 0 -77 -7 -113 -15z m632 -794 c-2 -14 -18 -54 -34 -90 -55
-114 -199 -235 -308 -256 l-30 -6 0 191 0 191 188 -2 187 -3 -3 -25z"/>
<path d="M3813 2581 c-211 -373 -383 -680 -383 -684 0 -4 347 -7 770 -7 424 0
770 2 770 4 0 7 -760 1350 -768 1358 -4 3 -179 -299 -389 -671z m604 -109
l212 -377 -426 -3 c-234 -1 -428 0 -430 2 -5 5 420 756 427 756 3 -1 100 -171
217 -378z"/>
<path d="M2472 3074 c-212 -57 -371 -230 -413 -448 -45 -240 82 -495 301 -605
102 -51 169 -64 289 -58 113 5 174 23 259 74 120 73 207 180 253 313 33 95 33
248 0 348 -60 185 -212 329 -397 377 -72 19 -221 19 -292 -1z m257 -193 c80
-25 151 -79 199 -151 98 -147 79 -341 -46 -467 -128 -128 -322 -146 -470 -45
-257 174 -202 566 93 661 77 25 148 26 224 2z"/>
</g>
</svg>
